<svg width="17" height="12" viewBox="0 0 17 12" fill="none" xmlns="http://www.w3.org/2000/svg">
<path d="M16 7.00006L17 7.00006L17 5.00006L16 5.00006L16 7.00006ZM16 5.00006L1.99999 5.00006L1.99999 7.00006L16 7.00006L16 5.00006ZM8.74194 12C8.74194 7.91185 4.57595 5 6.11959e-07 5L4.37114e-07 7C3.97557 7 6.74194 9.46073 6.74194 12L8.74194 12ZM4.37114e-07 7C4.57591 7 8.74212 4.08818 8.74212 -6.34504e-07L6.74212 -8.0935e-07C6.74212 2.53924 3.9756 5 6.11959e-07 5L4.37114e-07 7Z" fill="white"/>
</svg>
